<?xml version="1.0" standalone="no"?>
<!DOCTYPE svg PUBLIC "-//W3C//DTD SVG 20010904//EN"
 "http://www.w3.org/TR/2001/REC-SVG-20010904/DTD/svg10.dtd">
<svg version="1.0" xmlns="http://www.w3.org/2000/svg"
 width="512.000000pt" height="512.000000pt" viewBox="0 0 512.000000 512.000000"
 preserveAspectRatio="xMidYMid meet">

<g transform="translate(0.000000,512.000000) scale(0.100000,-0.100000)"
fill="#000000" stroke="none">
<path d="M2405 5068 c-11 -6 -22 -12 -24 -14 -1 -1 27 -32 64 -69 60 -60 69
-66 102 -63 20 2 38 8 39 13 5 17 -109 134 -136 140 -14 3 -34 0 -45 -7z"/>
<path d="M2547 5067 c-16 -11 -11 -19 50 -85 68 -72 87 -81 123 -62 18 10 16
14 -26 70 -67 88 -105 108 -147 77z"/>
<path d="M2691 5061 c-11 -7 -5 -20 30 -62 75 -90 86 -99 118 -99 16 0 32 4
36 10 7 12 -69 125 -98 145 -24 17 -65 19 -86 6z"/>
<path d="M2239 5044 c-11 -13 -10 -17 3 -25 10 -5 23 -15 30 -22 94 -88 124
-102 161 -74 15 11 11 18 -44 75 -54 54 -66 62 -99 62 -22 0 -43 -7 -51 -16z"/>
<path d="M2844 5045 c-3 -8 9 -36 27 -62 55 -79 80 -103 110 -103 31 0 45 15
31 33 -5 7 -22 35 -37 62 -15 28 -37 58 -49 67 -26 21 -75 23 -82 3z"/>
<path d="M2094 5025 c-19 -15 -19 -16 5 -33 14 -9 45 -34 70 -54 35 -29 55
-38 83 -38 59 0 57 18 -11 82 -66 63 -107 74 -147 43z"/>
<path d="M2987 5024 c-3 -4 7 -26 23 -50 17 -23 30 -47 30 -52 0 -6 13 -24 29
-41 20 -22 38 -31 60 -31 17 0 31 3 31 8 0 21 -73 153 -89 162 -22 11 -74 14
-84 4z"/>
<path d="M1958 4999 c-25 -14 -22 -31 10 -51 15 -9 47 -30 71 -47 49 -34 77
-39 107 -16 19 15 18 15 -6 36 -14 11 -36 30 -50 43 -49 45 -95 57 -132 35z"/>
<path d="M3137 4994 c-8 -8 71 -155 92 -171 18 -14 71 -17 71 -5 0 5 -9 27
-20 50 -11 22 -20 48 -20 55 0 28 -56 77 -87 77 -16 0 -32 -3 -36 -6z"/>
<path d="M1804 4949 c-13 -15 -15 -23 -7 -26 7 -2 39 -22 73 -44 64 -41 103
-48 135 -25 18 13 18 15 -11 39 -16 15 -35 27 -41 27 -7 0 -13 4 -13 10 0 15
-55 40 -88 40 -17 0 -37 -9 -48 -21z"/>
<path d="M3280 4952 c0 -9 28 -72 58 -132 19 -39 61 -67 85 -57 15 6 15 10 -3
52 -11 26 -20 55 -20 65 0 31 -54 80 -89 80 -17 0 -31 -4 -31 -8z"/>
<path d="M1668 4906 c-10 -7 -18 -17 -18 -22 0 -15 138 -84 168 -84 27 0 72
24 62 33 -3 2 -33 23 -67 45 -65 44 -112 53 -145 28z"/>
<path d="M3425 4900 c-4 -6 -2 -16 3 -23 6 -7 20 -42 32 -80 18 -54 28 -71 52
-83 40 -21 56 -13 50 25 -2 17 -8 34 -13 37 -5 3 -9 16 -9 30 0 14 -7 38 -15
55 -21 40 -84 64 -100 39z"/>
<path d="M1543 4854 c-36 -18 -43 -41 -15 -50 9 -4 41 -18 71 -32 64 -30 105
-32 129 -8 16 16 16 18 -8 36 -14 11 -29 20 -33 20 -5 0 -21 9 -36 19 -40 29
-72 33 -108 15z"/>
<path d="M2385 4864 c-278 -24 -616 -119 -825 -232 -142 -77 -182 -100 -250
-145 -125 -84 -209 -155 -346 -291 -271 -272 -440 -550 -566 -931 -16 -49 -33
-108 -38 -130 -17 -87 -39 -204 -51 -275 -15 -96 -15 -465 1 -573 79 -543 294
-980 662 -1344 131 -131 212 -197 358 -295 227 -152 554 -283 830 -333 327
-59 706 -42 1015 46 615 176 1138 612 1420 1184 59 119 126 286 146 360 110
415 125 699 60 1087 -46 274 -171 586 -332 833 -102 157 -189 263 -331 400
-251 245 -536 422 -853 527 -138 46 -235 69 -395 94 -95 15 -410 26 -505 18z
m172 -70 c-3 -19 -6 -37 -9 -39 -2 -2 -49 -7 -103 -10 -167 -10 -309 -34 -490
-84 -169 -47 -401 -157 -574 -273 -302 -203 -533 -458 -714 -789 -141 -258
-247 -643 -247 -896 0 -106 -10 -126 -60 -121 l-35 3 -3 75 c-4 84 9 202 39
360 148 779 720 1441 1468 1701 105 36 244 73 331 87 36 6 83 14 105 18 69 12
259 20 278 11 13 -6 16 -17 14 -43z m314 32 c361 -56 635 -160 927 -353 534
-353 899 -925 992 -1558 18 -129 28 -308 17 -323 -6 -8 -25 -12 -46 -10 l-36
3 -17 170 c-9 94 -21 194 -27 223 -138 688 -564 1250 -1177 1553 -67 33 -134
64 -150 69 -16 4 -56 18 -89 31 -33 12 -73 25 -90 29 -16 5 -55 15 -85 23 -30
8 -86 20 -125 27 -38 7 -92 16 -118 21 -26 5 -70 9 -96 9 -26 0 -76 3 -110 6
l-61 7 0 43 0 44 98 0 c54 0 141 -7 193 -14z m-46 -117 c387 -51 730 -194
1050 -437 33 -26 119 -105 190 -177 273 -272 449 -574 553 -950 134 -484 90
-1018 -122 -1479 -42 -92 -134 -256 -144 -256 -3 0 -75 45 -158 101 -143 95
-152 103 -157 137 -11 75 -19 101 -33 106 -21 8 -37 -31 -29 -72 8 -45 32 -92
46 -92 21 0 309 -196 309 -210 -1 -51 -282 -364 -440 -490 -260 -207 -578
-358 -885 -420 -33 -6 -78 -15 -100 -20 -22 -4 -108 -14 -192 -21 -154 -13
-359 -4 -488 22 -139 27 -165 33 -230 51 -254 71 -530 211 -739 375 -145 115
-416 406 -416 447 0 8 72 64 162 125 150 101 167 110 211 111 56 0 64 21 17
45 -40 21 -124 21 -116 0 3 -8 8 -21 11 -28 6 -14 -281 -217 -307 -217 -24 0
-137 199 -211 370 -57 135 -92 251 -132 435 -48 218 -46 596 4 840 97 476 352
907 721 1218 355 299 833 487 1270 500 117 3 267 -3 355 -14z m-2411 -2165 c3
-9 6 -53 6 -98 0 -298 130 -716 315 -1016 297 -479 750 -816 1295 -962 126
-33 358 -68 463 -68 31 0 58 -3 58 -7 13 -77 5 -93 -50 -93 -49 0 -263 24
-347 39 -253 45 -536 156 -769 301 -488 304 -844 789 -995 1357 -38 141 -70
361 -70 480 l0 83 44 0 c31 0 46 -5 50 -16z m4398 6 c6 -18 -10 -240 -23 -320
-61 -388 -213 -742 -457 -1065 -67 -88 -314 -332 -411 -405 -242 -183 -514
-314 -810 -390 -129 -34 -377 -69 -483 -70 l-48 0 0 50 0 50 58 0 c108 0 372
39 477 71 191 58 310 104 444 175 209 110 361 225 537 405 128 132 187 206
276 344 203 316 304 619 339 1023 l13 142 42 0 c23 0 44 -5 46 -10z"/>
<path d="M2295 4627 c-38 -5 -72 -11 -74 -13 -2 -2 3 -10 12 -18 22 -22 35
-185 16 -198 -9 -6 8 -7 46 -3 121 12 125 13 125 44 0 41 -10 44 -41 10 -34
-37 -60 -35 -70 5 -10 37 -5 46 31 46 30 0 45 13 35 30 -4 6 -15 6 -32 -1 -31
-12 -40 -4 -49 37 -5 28 -3 32 23 37 18 3 34 0 46 -11 21 -18 41 -5 35 24 -4
23 -15 24 -103 11z"/>
<path d="M2463 4626 c14 -11 17 -29 17 -99 0 -47 -4 -89 -10 -92 -23 -14 -7
-22 38 -20 26 2 49 4 52 4 2 1 -6 8 -18 17 -12 8 -22 26 -22 39 0 24 7 29 65
37 27 4 16 23 -15 24 -51 3 -51 3 -48 42 3 32 6 37 32 40 20 3 32 -3 43 -17
17 -26 33 -19 33 15 0 24 -1 24 -92 24 -80 -1 -90 -3 -75 -14z"/>
<path d="M2708 4617 c-32 -26 -48 -64 -48 -114 0 -53 53 -103 110 -103 23 0
50 5 61 10 29 16 49 63 49 116 0 93 -103 148 -172 91z m97 -22 c48 -47 22
-175 -34 -175 -59 0 -81 130 -30 181 25 25 35 24 64 -6z"/>
<path d="M2948 4593 c12 -23 -22 -173 -44 -189 -21 -17 -17 -24 14 -24 15 0
34 -4 42 -9 21 -14 33 -2 16 15 -12 11 -13 21 -4 44 16 48 36 36 56 -36 12
-41 30 -54 72 -54 13 1 13 2 -1 13 -9 7 -22 29 -30 50 -13 38 -13 38 19 63 71
56 23 116 -111 139 -35 6 -37 4 -29 -12z m103 -33 c23 -13 25 -53 3 -74 -17
-18 -24 -19 -48 -10 -18 7 -20 31 -6 68 10 28 21 31 51 16z"/>
<path d="M2020 4573 c-68 -20 -68 -20 -45 -37 21 -15 57 -149 49 -182 -5 -21
-4 -21 40 -11 43 10 63 27 32 27 -15 0 -26 21 -26 51 0 30 30 23 64 -16 27
-32 35 -35 64 -29 31 6 45 24 20 24 -7 0 -26 12 -42 26 -27 24 -28 28 -18 58
17 48 15 62 -14 85 -31 24 -49 25 -124 4z m88 -25 c22 -22 14 -63 -14 -78 -22
-12 -27 -12 -35 0 -14 23 -22 58 -15 75 7 18 47 20 64 3z"/>
<path d="M3213 4525 c9 -21 -50 -157 -76 -177 -21 -16 -21 -17 -2 -23 11 -4
27 -10 36 -15 21 -11 32 -1 18 16 -11 14 26 104 43 104 5 0 8 -31 7 -72 -2
-51 1 -73 10 -76 7 -2 37 20 67 49 29 29 56 50 59 47 8 -8 -34 -100 -52 -113
-14 -10 -12 -13 17 -23 18 -7 55 -25 81 -42 27 -16 51 -30 53 -30 2 0 1 11 -1
24 -7 34 22 41 63 15 36 -22 44 -52 19 -66 -12 -7 3 -22 61 -63 42 -30 89 -65
106 -77 91 -67 210 32 168 141 -9 24 -102 106 -121 106 -4 0 -6 -7 -3 -15 6
-15 -98 -155 -115 -155 -4 0 -15 6 -25 13 -17 13 -17 18 0 131 23 154 19 157
-100 65 -49 -38 -95 -69 -101 -69 -7 0 -19 8 -28 18 -16 17 -14 24 16 100 17
45 38 82 45 82 24 0 12 18 -20 29 -32 11 -33 10 -86 -49 -29 -33 -58 -60 -63
-60 -5 0 -9 38 -9 85 0 83 0 85 -30 100 -36 19 -44 19 -37 0z m377 -254 c0
-48 -25 -66 -50 -36 -10 13 -10 19 5 35 23 25 45 26 45 1z m258 -103 c23 -23
14 -75 -19 -113 -27 -30 -37 -36 -67 -33 -60 5 -62 27 -8 97 46 60 70 73 94
49z"/>
<path d="M1699 4453 c0 -5 -1 -65 -2 -134 l-2 -126 33 15 c34 17 42 32 17 32
-30 0 -16 40 19 57 40 19 66 12 66 -17 0 -24 -2 -24 44 -5 34 14 49 35 25 35
-6 0 -48 34 -94 75 -76 69 -104 87 -106 68z m79 -112 c3 -18 -2 -21 -27 -21
-27 0 -31 3 -31 28 0 16 3 32 7 35 11 11 48 -19 51 -42z"/>
<path d="M1475 4329 c-44 -28 -82 -53 -84 -55 -6 -6 29 -54 40 -54 6 0 9 10 8
23 -4 26 7 47 24 47 20 0 100 -138 94 -160 -7 -27 0 -25 53 10 40 27 42 30 20
30 -20 0 -33 13 -68 71 -23 38 -42 77 -42 85 0 17 41 19 57 3 7 -7 13 -8 17 0
8 12 -14 51 -29 51 -5 0 -46 -23 -90 -51z"/>
<path d="M2513 4316 c-15 -13 -36 -38 -46 -55 -16 -27 -16 -32 -3 -37 16 -6
76 25 76 39 0 6 10 18 21 28 23 20 20 49 -5 49 -8 0 -27 -11 -43 -24z"/>
<path d="M2402 4307 c-12 -13 -22 -27 -22 -31 0 -4 -7 -14 -15 -22 -22 -23
-18 -34 13 -34 24 0 62 28 62 46 0 4 9 15 21 25 11 10 18 23 14 28 -11 19 -51
12 -73 -12z"/>
<path d="M2601 4299 c-45 -44 -55 -66 -34 -73 19 -8 54 14 94 57 36 40 36 47
0 47 -20 0 -40 -10 -60 -31z"/>
<path d="M2730 4313 c-14 -9 -38 -30 -53 -47 -21 -22 -25 -31 -15 -37 25 -16
44 -9 92 35 47 42 48 44 28 55 -26 14 -23 14 -52 -6z"/>
<path d="M2302 4297 c-12 -13 -22 -28 -22 -33 0 -6 -9 -20 -20 -32 -12 -13
-16 -23 -9 -27 22 -14 58 7 86 50 15 25 32 45 36 45 5 0 5 5 2 10 -11 18 -51
11 -73 -13z"/>
<path d="M2797 4271 c-32 -31 -39 -43 -30 -52 6 -6 22 -9 35 -6 33 9 102 72
94 86 -15 23 -57 11 -99 -28z"/>
<path d="M2199 4283 c-8 -10 -21 -31 -29 -48 -8 -16 -19 -33 -25 -37 -16 -12
25 -21 48 -11 20 9 67 82 67 104 0 16 -46 10 -61 -8z"/>
<path d="M2939 4282 c-25 -11 -79 -60 -79 -71 0 -11 21 -15 50 -11 8 1 34 16
57 33 30 24 38 35 31 45 -11 13 -34 15 -59 4z"/>
<path d="M2097 4260 c-9 -11 -17 -24 -17 -29 0 -5 -7 -21 -15 -37 -17 -33 -7
-49 23 -40 18 6 72 95 72 118 0 16 -46 7 -63 -12z"/>
<path d="M3025 4248 c-11 -7 -31 -22 -45 -35 -21 -20 -23 -25 -10 -33 19 -13
56 -4 91 21 15 10 32 19 38 19 14 0 14 13 -1 28 -15 15 -47 15 -73 0z"/>
<path d="M2002 4238 c-14 -18 -42 -87 -42 -105 0 -23 44 -11 55 15 5 12 13 22
17 22 5 0 8 11 8 25 0 14 5 25 10 25 6 0 10 7 10 15 0 18 -43 20 -58 3z"/>
<path d="M1302 4210 c-39 -24 -57 -65 -45 -100 10 -30 43 -39 101 -28 72 13
109 -24 58 -57 -19 -13 -28 -14 -50 -4 -31 14 -45 5 -30 -19 20 -31 61 -27 99
11 44 44 48 88 9 113 -22 15 -32 15 -81 5 -48 -11 -57 -11 -71 3 -27 27 -3 51
47 49 45 -2 46 -1 31 28 -13 24 -27 24 -68 -1z"/>
<path d="M1905 4195 c-14 -13 -25 -35 -25 -49 0 -14 -4 -28 -10 -31 -17 -11
-11 -35 9 -35 22 0 61 49 61 77 0 10 5 24 11 30 12 12 4 33 -12 33 -5 0 -21
-11 -34 -25z"/>
<path d="M3087 4193 c-29 -20 -35 -29 -26 -39 6 -8 18 -14 27 -14 20 0 105 40
114 54 24 35 -63 35 -115 -1z"/>
<path d="M3202 4163 c-56 -28 -63 -46 -18 -51 33 -4 116 28 116 45 0 10 -30
33 -42 33 -2 0 -27 -12 -56 -27z"/>
<path d="M1807 4148 c-26 -34 -40 -109 -21 -115 28 -9 61 49 67 121 3 32 -20
29 -46 -6z"/>
<path d="M3315 4130 c-3 -5 -14 -10 -23 -10 -9 0 -26 -8 -37 -16 l-20 -15 20
-15 c22 -16 47 -13 105 14 46 20 45 19 30 37 -14 17 -65 20 -75 5z"/>
<path d="M1726 4117 c-18 -13 -53 -123 -42 -134 14 -14 54 16 60 46 3 17 9 44
12 60 7 33 -6 46 -30 28z"/>
<path d="M1147 4072 c-31 -32 -34 -42 -11 -42 18 0 127 -115 134 -142 4 -17 9
-15 39 16 31 32 33 36 14 36 -27 0 -145 124 -137 145 10 24 -10 17 -39 -13z"/>
<path d="M3383 4072 c-44 -15 -50 -20 -42 -35 11 -19 83 -25 94 -7 3 6 17 10
31 10 29 0 32 25 5 40 -24 12 -25 12 -88 -8z"/>
<path d="M1625 4050 c-25 -28 -34 -130 -12 -130 24 0 47 40 47 82 0 20 5 40
10 43 16 10 11 25 -8 25 -11 0 -27 -9 -37 -20z"/>
<path d="M3472 4020 c-47 -11 -57 -24 -36 -45 12 -12 26 -15 48 -10 17 3 46 8
64 12 36 6 42 27 13 43 -22 11 -41 11 -89 0z"/>
<path d="M1537 3992 c-12 -13 -17 -37 -17 -76 0 -49 3 -57 17 -54 25 5 43 46
43 101 0 51 -14 61 -43 29z"/>
<path d="M3941 3975 c-47 -19 -98 -35 -115 -35 l-30 0 29 -30 c28 -29 30 -30
37 -10 11 29 42 25 72 -10 27 -33 25 -60 -5 -60 -26 0 -24 -12 9 -43 33 -32
42 -34 42 -8 0 10 18 58 40 106 64 139 58 146 -79 90z m59 -26 c0 -22 -21 -49
-39 -49 -27 0 -36 31 -15 47 22 16 54 17 54 2z"/>
<path d="M1006 3923 c-65 -78 -65 -78 -44 -95 30 -26 38 -22 35 18 -1 21 3 39
10 41 18 7 138 -107 136 -128 -4 -30 11 -22 47 22 27 34 29 40 12 35 -16 -5
-35 6 -84 50 -34 31 -63 60 -62 65 1 5 2 14 3 20 0 7 12 9 30 6 16 -3 31 -3
35 0 8 8 -24 43 -40 43 -7 0 -42 -35 -78 -77z"/>
<path d="M3553 3958 c-47 -10 -56 -30 -22 -48 15 -8 29 -8 51 -1 17 6 44 11
59 11 35 0 37 13 7 34 -25 18 -34 18 -95 4z"/>
<path d="M1456 3928 c-17 -25 -23 -138 -7 -138 25 0 51 54 51 106 0 60 -17 72
-44 32z"/>
<path d="M2410 3914 c-158 -29 -207 -41 -280 -67 -136 -47 -292 -133 -385
-210 l-30 -25 44 -20 44 -20 83 55 c163 106 340 172 519 194 109 14 335 5 421
-15 171 -42 338 -117 468 -212 72 -52 73 -53 113 -41 22 7 42 16 44 21 7 16
-165 140 -268 193 -203 105 -353 143 -588 148 -88 2 -171 1 -185 -1z"/>
<path d="M3613 3888 c-27 -13 -28 -21 -8 -38 10 -9 33 -11 70 -7 71 7 81 14
59 38 -19 21 -84 25 -121 7z"/>
<path d="M1376 3858 c-18 -26 -22 -123 -5 -133 5 -4 19 1 30 11 15 13 19 30
19 81 0 69 -15 83 -44 41z"/>
<path d="M3713 3823 c-47 -4 -58 -24 -23 -43 26 -14 130 -2 130 16 0 15 -32
35 -52 32 -7 -1 -32 -3 -55 -5z"/>
<path d="M896 3780 c-20 -36 -20 -43 2 -36 25 7 136 -74 140 -103 4 -28 -24
-61 -53 -61 -25 0 -113 53 -136 82 -15 20 -16 20 -37 -13 l-21 -34 21 -3 c12
-2 44 -19 72 -38 65 -44 111 -46 149 -6 15 15 30 42 33 60 7 34 12 27 -116
145 l-37 34 -17 -27z"/>
<path d="M1300 3785 c-15 -18 -3 -148 14 -142 21 7 31 43 28 100 -4 59 -17 72
-42 42z"/>
<path d="M4220 3775 c0 -20 -129 -105 -158 -105 l-24 0 23 -37 c56 -95 118
-130 175 -100 80 42 93 116 34 204 -36 54 -50 65 -50 38z m48 -77 c31 -31 -4
-99 -65 -124 -29 -12 -37 -12 -62 0 -43 23 -45 42 -8 69 100 74 112 78 135 55z"/>
<path d="M3744 3739 c-13 -22 21 -38 86 -40 67 -2 76 5 48 38 -13 16 -124 17
-134 2z"/>
<path d="M1232 3708 c-16 -16 -15 -78 1 -117 13 -30 14 -31 30 -13 17 19 21
67 8 111 -8 29 -22 36 -39 19z"/>
<path d="M3810 3663 c0 -11 6 -25 13 -31 16 -14 130 -19 134 -6 7 21 -36 45
-91 51 -51 5 -56 4 -56 -14z"/>
<path d="M1170 3625 c-23 -27 -5 -145 21 -145 16 0 31 42 25 71 -3 16 -9 43
-12 59 -7 34 -16 37 -34 15z"/>
<path d="M3876 3592 c-11 -18 6 -42 33 -48 14 -2 42 -9 62 -14 48 -13 49 -13
49 9 0 25 -17 37 -67 45 -23 3 -48 9 -56 12 -8 3 -18 1 -21 -4z"/>
<path d="M1118 3549 c-21 -12 -24 -65 -6 -118 16 -47 15 -46 33 -31 17 14 21
90 6 106 -5 5 -11 19 -13 31 -2 18 -6 20 -20 12z"/>
<path d="M4365 3547 c-10 -25 -142 -90 -171 -84 -13 2 -24 2 -24 0 0 -4 71
-146 76 -152 7 -7 54 18 54 29 0 5 -10 10 -21 10 -24 0 -48 26 -49 51 0 9 11
21 25 27 33 15 45 15 45 -1 0 -19 27 -53 36 -45 3 4 1 21 -6 38 -11 27 -11 32
6 45 29 22 53 18 64 -10 7 -18 6 -32 -2 -45 -7 -10 -10 -22 -6 -25 6 -7 58 15
58 24 -1 3 -18 40 -40 81 -30 58 -40 71 -45 57z"/>
<path d="M2175 3471 c-141 -73 -226 -156 -276 -266 -33 -73 -33 -229 -1 -300
39 -86 133 -165 196 -165 43 0 157 73 228 147 70 73 68 191 -4 260 -46 43 -70
53 -126 53 -43 0 -56 -5 -92 -35 -23 -19 -47 -35 -52 -35 -18 0 -3 92 24 152
31 68 91 135 159 178 49 32 62 50 35 50 -8 0 -49 -18 -91 -39z m-21 -403 c85
-70 116 -228 45 -228 -30 0 -102 73 -132 134 -33 66 -33 79 -5 106 30 27 47
25 92 -12z"/>
<path d="M3934 3498 c-12 -19 32 -49 84 -57 29 -4 55 -4 58 0 9 15 -16 49 -39
53 -59 12 -97 14 -103 4z"/>
<path d="M710 3464 c0 -9 31 -51 68 -93 38 -42 73 -84 79 -95 9 -17 12 -16 27
14 20 41 20 43 -3 35 -10 -3 -23 1 -30 9 -10 11 -8 23 9 55 23 45 46 53 59 19
8 -21 10 -20 30 19 11 23 21 44 21 45 0 2 -59 4 -130 6 -117 3 -130 1 -130
-14z m108 -30 c26 -7 30 -42 5 -51 -10 -4 -23 2 -35 16 -30 38 -22 48 30 35z"/>
<path d="M2714 3447 c-69 -48 -151 -140 -165 -186 -15 -49 4 -87 60 -121 52
-33 57 -47 24 -73 -94 -73 -125 -155 -88 -228 29 -55 127 -99 222 -99 45 0 55
5 119 57 85 70 100 87 124 138 36 74 19 132 -52 182 -21 14 -38 33 -38 41 0 8
17 30 39 48 45 39 71 88 71 134 0 24 -10 42 -38 70 -40 40 -80 55 -172 65 -51
6 -59 4 -106 -28z m130 -122 c42 -28 59 -69 46 -111 -6 -19 -18 -34 -25 -34
-18 0 -113 55 -142 83 -16 14 -23 32 -23 55 l0 35 59 -6 c32 -2 71 -13 85 -22z
m-58 -301 c86 -57 109 -97 84 -145 -21 -38 -112 -10 -164 51 -28 34 -35 85
-15 121 12 24 22 22 95 -27z"/>
<path d="M3401 3449 c-38 -19 -93 -61 -137 -103 l-74 -71 0 -62 c0 -75 12
-108 53 -151 60 -62 144 -69 211 -17 62 47 70 45 64 -13 -10 -104 -87 -218
-187 -277 -46 -27 -67 -55 -40 -55 5 0 47 18 92 41 143 71 246 174 284 283 26
75 23 213 -6 288 -22 57 -88 130 -134 147 -57 21 -64 21 -126 -10z m28 -120
c40 -40 91 -132 91 -165 0 -46 -73 -57 -119 -19 -34 30 -81 121 -81 160 0 74
48 85 109 24z"/>
<path d="M1482 3384 c-93 -78 -116 -104 -94 -104 4 0 25 12 46 26 68 47 70 41
77 -227 6 -247 13 -282 58 -323 23 -21 13 -26 116 58 33 27 60 54 60 60 0 6
-12 11 -28 12 -15 1 -31 4 -35 8 -4 4 -9 117 -12 250 l-5 242 -28 42 c-15 23
-33 42 -40 42 -8 0 -59 -39 -115 -86z"/>
<path d="M1052 3448 c-14 -14 -16 -51 -3 -76 5 -9 14 -29 21 -44 11 -23 16
-26 28 -16 16 14 11 77 -9 122 -14 29 -20 31 -37 14z"/>
<path d="M3986 3412 c-12 -20 25 -49 78 -62 63 -15 74 -10 59 23 -14 30 -123
61 -137 39z"/>
<path d="M1000 3350 c-12 -22 -8 -44 16 -97 18 -39 33 -50 45 -32 13 20 11 46
-5 82 -8 18 -16 40 -20 50 -7 23 -23 22 -36 -3z"/>
<path d="M4458 3332 c-6 -22 -117 -65 -166 -65 -19 0 -31 -5 -28 -11 3 -6 15
-42 28 -80 12 -38 28 -70 34 -73 15 -6 64 14 64 27 0 5 -11 10 -25 10 -17 0
-29 9 -40 30 -9 17 -14 34 -11 39 9 15 154 61 170 55 20 -8 20 7 2 51 -17 40
-22 43 -28 17z"/>
<path d="M4036 3324 c-8 -20 36 -64 64 -64 11 0 29 -6 40 -12 15 -10 22 -10
31 -1 17 17 -41 73 -75 73 -13 0 -28 5 -31 10 -9 15 -22 12 -29 -6z"/>
<path d="M646 3277 c-20 -15 -68 -145 -56 -152 5 -3 11 -1 14 4 9 14 159 -37
179 -60 9 -12 17 -20 17 -17 0 2 9 28 20 58 25 69 26 122 2 143 -22 20 -36 21
-62 5 -16 -10 -23 -9 -43 10 -27 25 -46 28 -71 9z m59 -57 c11 -34 -3 -62 -28
-54 -38 11 -50 29 -38 53 15 27 57 28 66 1z m100 -20 c15 -17 16 -24 6 -46
-10 -22 -16 -25 -39 -19 -46 11 -57 28 -37 59 21 31 45 33 70 6z"/>
<path d="M954 3246 c-7 -30 2 -61 31 -103 16 -25 24 -30 33 -21 18 18 14 48
-11 97 -26 53 -44 62 -53 27z"/>
<path d="M4080 3215 c0 -25 41 -55 75 -55 8 0 15 -4 15 -10 0 -5 9 -10 20 -10
27 0 26 31 -3 58 -13 12 -33 22 -45 22 -11 0 -24 5 -27 10 -12 20 -35 10 -35
-15z"/>
<path d="M916 3145 c-11 -42 41 -132 69 -122 22 9 19 41 -11 97 -29 55 -48 63
-58 25z"/>
<path d="M4110 3125 c0 -21 48 -65 71 -65 10 0 21 -4 24 -10 13 -22 36 -10 33
17 -5 42 -128 98 -128 58z"/>
<path d="M892 3058 c-17 -17 -15 -38 9 -77 27 -45 47 -64 59 -56 17 11 11 49
-15 87 -14 20 -25 42 -25 47 0 15 -13 14 -28 -1z"/>
<path d="M4146 3043 c-19 -20 12 -60 68 -88 39 -20 56 -19 56 3 0 26 -39 57
-111 89 -3 1 -9 0 -13 -4z"/>
<path d="M4554 3023 c-5 -9 -50 -39 -99 -67 -130 -75 -126 -95 25 -116 47 -6
96 -18 109 -27 24 -15 24 -15 17 17 -3 18 -6 37 -6 43 0 5 -8 3 -17 -5 -15
-12 -29 -13 -82 -4 -36 6 -66 16 -68 21 -4 14 106 70 132 67 18 -2 20 3 17 38
-5 45 -13 56 -28 33z"/>
<path d="M864 2945 c-4 -8 -3 -25 0 -38 7 -26 59 -87 75 -87 23 0 10 57 -21
98 -35 45 -45 50 -54 27z"/>
<path d="M752 2938 c-6 -6 -58 -23 -114 -38 -140 -35 -141 -47 -14 -118 93
-53 113 -73 100 -106 -9 -22 -165 -24 -184 -1 -21 26 -30 17 -30 -30 0 -43 11
-58 26 -34 10 17 174 5 185 -12 13 -22 16 -8 21 88 4 84 3 91 -13 83 -27 -15
-42 12 -34 59 7 44 31 60 50 35 10 -14 13 -9 22 35 10 52 7 61 -15 39z m-82
-102 c0 -32 -13 -39 -44 -25 -30 14 -33 24 -8 38 31 18 52 13 52 -13z"/>
<path d="M4170 2922 c0 -18 38 -62 54 -62 4 0 16 -9 28 -20 40 -37 55 12 15
52 -46 47 -97 63 -97 30z"/>
<path d="M845 2847 c-11 -28 2 -59 41 -101 28 -30 38 -35 45 -25 16 26 9 45
-35 95 -37 41 -46 46 -51 31z"/>
<path d="M4187 2833 c-10 -18 14 -53 57 -82 24 -17 47 -31 50 -31 3 0 6 13 6
30 0 23 -9 35 -44 60 -45 31 -61 36 -69 23z"/>
<path d="M1243 2763 c-14 -114 -8 -349 12 -443 53 -261 167 -484 341 -669 193
-205 424 -336 701 -398 110 -25 426 -25 536 0 281 63 498 185 697 393 130 136
218 277 285 458 61 166 79 266 79 463 1 110 -3 176 -10 183 -7 7 -21 6 -46 -4
l-35 -15 5 -110 c13 -313 -90 -615 -293 -860 -27 -34 -56 -61 -64 -61 -8 0
-34 18 -58 41 -75 69 -117 82 -278 87 -179 5 -210 -3 -251 -66 -16 -26 -51
-60 -77 -77 -25 -16 -46 -33 -46 -36 -1 -3 24 -16 54 -28 90 -38 205 -155 205
-211 0 -34 -26 -22 -49 23 -30 57 -83 107 -149 139 l-67 33 -170 0 c-163 -1
-172 -2 -228 -27 -56 -26 -157 -117 -157 -141 -1 -23 -27 -47 -44 -41 -14 5
-13 12 11 56 38 69 119 140 195 171 59 24 62 26 38 35 -25 10 -126 111 -146
147 -10 19 -23 20 -185 20 -160 0 -178 -2 -225 -23 -28 -13 -68 -41 -90 -63
-21 -21 -45 -39 -54 -38 -34 1 -173 194 -237 329 -103 217 -146 481 -113 700
9 62 -3 83 -52 95 -26 7 -26 6 -35 -62z"/>
<path d="M830 2721 c0 -33 72 -117 90 -106 21 13 9 52 -30 93 -48 50 -60 52
-60 13z"/>
<path d="M4390 2723 c0 -17 3 -58 6 -92 7 -59 8 -61 35 -61 34 0 38 15 8 30
-15 9 -19 19 -17 43 3 29 6 32 38 32 33 0 35 -2 38 -37 4 -50 22 -49 22 1 0
32 4 39 23 43 41 7 57 -2 57 -32 0 -20 -7 -33 -21 -41 -26 -13 -12 -32 22 -27
21 3 22 7 20 83 -1 44 -4 82 -6 84 -3 2 -10 -1 -18 -7 -19 -16 -173 -18 -192
-2 -13 11 -15 8 -15 -17z"/>
<path d="M4200 2716 c0 -26 71 -96 97 -96 29 0 13 49 -29 84 -49 42 -68 45
-68 12z"/>
<path d="M827 2633 c-16 -16 -4 -44 35 -82 48 -47 68 -52 68 -16 0 17 -14 40
-39 65 -39 40 -52 46 -64 33z"/>
<path d="M4207 2633 c-16 -15 -4 -41 38 -86 25 -26 50 -45 55 -42 22 14 9 57
-29 95 -39 40 -52 46 -64 33z"/>
<path d="M644 2542 c-6 -4 -23 -31 -38 -59 -26 -52 -55 -69 -71 -42 -11 16 4
59 20 59 20 0 19 26 0 34 -26 9 -43 -4 -49 -40 -10 -51 28 -114 69 -114 26 0
45 20 74 77 24 48 33 55 55 47 10 -4 16 -18 16 -38 0 -25 -6 -35 -25 -44 -34
-16 -31 -32 5 -32 35 0 44 16 45 76 0 27 -7 49 -19 63 -19 21 -61 28 -82 13z"/>
<path d="M823 2524 c-9 -25 13 -60 60 -93 46 -31 57 -31 57 1 0 18 -85 108
-102 108 -5 0 -11 -7 -15 -16z"/>
<path d="M1965 2526 c-166 -53 -256 -183 -243 -351 10 -116 80 -219 190 -276
58 -31 218 -34 262 -6 25 17 27 22 21 57 -8 49 9 140 37 198 13 26 49 72 81
104 l58 57 -25 48 c-24 48 -92 119 -135 143 -72 38 -173 49 -246 26z"/>
<path d="M2973 2521 c-29 -10 -60 -24 -70 -31 -52 -40 -97 -90 -120 -134 l-25
-49 49 -42 c84 -74 142 -214 130 -315 -6 -47 -5 -48 26 -62 19 -8 69 -13 122
-13 78 0 97 4 140 27 65 34 128 100 157 163 32 70 32 209 0 275 -79 162 -247
236 -409 181z"/>
<path d="M4207 2533 c-16 -16 -4 -47 34 -88 23 -25 45 -45 50 -45 5 0 9 15 9
33 0 25 -9 42 -38 70 -40 39 -44 41 -55 30z"/>
<path d="M4395 2468 c-8 -81 4 -118 45 -145 38 -27 79 -29 120 -8 40 21 53 49
60 125 l5 65 -99 0 c-71 0 -101 4 -104 13 -9 29 -21 8 -27 -50z m197 -24 c15
-10 8 -51 -13 -70 -15 -13 -36 -19 -69 -19 -61 0 -90 24 -90 73 l0 35 82 -7
c44 -4 85 -9 90 -12z"/>
<path d="M4207 2433 c-16 -15 -5 -60 23 -93 16 -19 30 -38 30 -42 0 -5 6 -8
14 -8 20 0 29 35 16 60 -18 33 -76 91 -83 83z"/>
<path d="M837 2423 c-16 -15 -5 -43 26 -68 17 -14 40 -33 50 -41 21 -17 37
-10 37 15 0 28 -98 110 -113 94z"/>
<path d="M697 2343 c-12 -11 -8 -23 8 -23 17 0 35 -30 35 -58 0 -13 -9 -21
-27 -25 -39 -7 -51 1 -55 36 -4 42 -23 32 -23 -13 0 -33 -2 -35 -37 -38 -36
-3 -38 -2 -38 26 0 16 7 35 15 42 23 19 18 30 -15 30 -34 0 -35 -3 -19 -100
12 -73 13 -77 32 -62 18 15 153 35 184 27 23 -5 25 -3 20 17 -3 13 -8 41 -12
63 -13 81 -14 85 -39 85 -12 0 -26 -3 -29 -7z"/>
<path d="M4183 2314 c-6 -17 7 -52 31 -81 9 -10 22 -27 29 -37 14 -19 15 -19
27 3 14 28 5 55 -36 101 -31 34 -42 37 -51 14z"/>
<path d="M844 2306 c-7 -17 25 -65 44 -66 6 0 12 -3 12 -7 0 -14 53 -34 63
-24 14 14 -20 67 -53 81 -16 7 -30 16 -30 21 0 15 -30 10 -36 -5z"/>
<path d="M2484 2306 c-89 -22 -170 -87 -216 -176 -20 -39 -23 -59 -23 -150 0
-82 4 -113 19 -142 29 -59 94 -127 150 -156 46 -24 62 -27 151 -27 92 0 104 2
154 30 55 30 120 96 146 147 43 87 41 208 -6 305 -33 68 -118 139 -196 163
-73 23 -106 24 -179 6z"/>
<path d="M4374 2270 c-11 -39 -11 -40 14 -33 15 3 27 1 32 -8 11 -16 2 -70
-14 -87 -13 -13 -46 -7 -46 10 0 5 -4 6 -10 3 -5 -3 -10 -18 -10 -33 0 -15
-13 -65 -30 -112 -38 -110 -38 -132 3 -175 66 -71 161 -50 197 45 33 85 34 93
13 86 -10 -3 -54 7 -98 23 -69 24 -80 32 -83 53 -4 31 18 41 146 64 118 21
120 32 15 104 -43 28 -87 63 -98 76 l-21 24 -10 -40z m119 -84 c25 -19 21 -33
-10 -39 -35 -7 -43 -2 -43 29 0 27 24 32 53 10z m-88 -241 c87 -31 94 -38 75
-73 -43 -75 -198 -5 -162 73 6 14 13 25 15 25 2 0 35 -11 72 -25z"/>
<path d="M4163 2213 c-10 -27 57 -141 76 -128 23 14 -4 115 -31 115 -4 0 -8 7
-8 15 0 20 -29 19 -37 -2z"/>
<path d="M867 2213 c-22 -21 36 -93 74 -93 10 0 19 -4 19 -10 0 -5 7 -10 15
-10 34 0 4 79 -31 80 -5 0 -20 9 -34 20 -27 21 -33 23 -43 13z"/>
<path d="M738 2148 c-38 -13 -35 -34 3 -30 15 2 40 -38 37 -59 -2 -18 -16 -27
-77 -45 -55 -17 -80 -20 -93 -13 -18 10 -19 7 -12 -28 9 -52 13 -57 32 -40 25
22 157 60 183 52 17 -6 20 -4 16 12 -39 134 -49 163 -55 162 -4 0 -19 -5 -34
-11z"/>
<path d="M4140 2100 c0 -41 41 -121 60 -117 26 4 23 55 -5 102 -30 53 -55 59
-55 15z"/>
<path d="M890 2091 c0 -21 57 -71 81 -71 8 0 20 -5 27 -12 9 -9 13 -7 18 7 8
20 -4 45 -27 55 -8 4 -28 15 -46 24 -41 21 -53 20 -53 -3z"/>
<path d="M4109 2016 c-9 -20 -7 -34 15 -81 29 -60 49 -67 54 -20 4 29 -36 125
-51 125 -4 0 -12 -11 -18 -24z"/>
<path d="M923 1994 c-7 -19 13 -41 51 -58 51 -23 77 -26 83 -10 7 19 -24 54
-48 54 -10 0 -20 4 -23 9 -10 16 -57 19 -63 5z"/>
<path d="M4069 1916 c-9 -20 -8 -33 10 -68 11 -25 21 -50 21 -56 0 -15 13 -15
28 0 18 18 15 53 -9 103 -24 51 -35 55 -50 21z"/>
<path d="M750 1909 c0 -4 7 -23 15 -43 16 -39 35 -48 35 -17 0 23 28 35 46 20
25 -21 17 -75 -16 -102 -55 -47 -118 -47 -139 -1 -9 22 -9 31 4 50 20 31 19
44 -4 44 -48 0 -52 -74 -6 -129 46 -54 139 -49 190 10 37 44 34 90 -9 136 -29
32 -41 38 -75 38 -23 0 -41 -3 -41 -6z"/>
<path d="M963 1894 c-7 -19 24 -54 48 -54 10 0 21 -4 24 -10 9 -15 65 -12 65
3 -1 28 -24 44 -103 68 -21 6 -29 4 -34 -7z"/>
<path d="M4037 1839 c-21 -12 -21 -40 -1 -98 21 -60 24 -64 40 -50 19 15 17
64 -4 116 -14 35 -20 40 -35 32z"/>
<path d="M1005 1800 c-12 -20 39 -57 90 -63 53 -8 60 -5 52 17 -12 30 -128 69
-142 46z"/>
<path d="M4234 1779 c-30 -15 -54 -62 -54 -104 0 -48 49 -100 104 -111 111
-20 178 112 98 190 -32 30 -112 44 -148 25z m93 -48 c59 -27 80 -73 47 -105
-32 -32 -104 -14 -152 37 -20 21 -22 29 -13 46 24 43 56 50 118 22z"/>
<path d="M926 1705 c-4 -14 -10 -25 -15 -25 -5 0 -37 -16 -71 -35 -39 -22 -70
-33 -81 -30 -24 8 -24 6 5 -45 21 -37 25 -40 30 -22 8 25 150 104 171 96 8 -4
15 -3 15 0 0 9 -40 86 -44 86 -2 0 -7 -11 -10 -25z"/>
<path d="M1060 1703 c0 -32 35 -55 90 -61 38 -3 50 -1 50 9 0 26 -18 41 -56
49 -22 5 -49 12 -61 15 -19 6 -23 3 -23 -12z"/>
<path d="M3926 1649 c-9 -14 -13 -34 -10 -53 8 -42 25 -86 34 -86 18 0 32 32
27 62 -19 107 -24 115 -51 77z"/>
<path d="M3861 1563 c-12 -23 1 -135 16 -140 20 -7 46 44 39 75 -4 15 -10 39
-13 55 -6 31 -28 36 -42 10z"/>
<path d="M1175 1531 c-4 -7 1 -21 11 -32 13 -15 30 -19 81 -19 67 0 75 6 44
34 -24 21 -125 34 -136 17z"/>
<path d="M3801 1486 c-12 -15 -10 -129 3 -133 28 -12 43 26 38 95 -4 53 -18
66 -41 38z"/>
<path d="M1246 1453 c-10 -10 -7 -21 10 -37 11 -11 35 -16 80 -16 68 0 76 6
45 34 -19 17 -122 31 -135 19z"/>
<path d="M3732 1418 c-14 -14 -17 -148 -4 -148 22 0 42 39 42 82 0 71 -12 92
-38 66z"/>
<path d="M1338 1373 c-33 -5 -35 -14 -9 -37 13 -12 33 -16 70 -15 69 3 83 14
52 39 -22 19 -50 22 -113 13z"/>
<path d="M3657 1342 c-19 -20 -25 -142 -8 -142 31 0 54 54 49 115 -3 44 -17
53 -41 27z"/>
<path d="M1065 1315 c-31 -30 -33 -77 -5 -105 29 -29 45 -24 21 6 -12 15 -21
30 -21 35 0 19 54 69 75 69 23 0 40 -24 29 -41 -10 -17 7 -31 22 -18 19 16 18
22 -11 53 -32 34 -77 35 -110 1z"/>
<path d="M3965 1320 c-40 -44 20 -105 65 -65 32 29 55 1 24 -30 -19 -18 -13
-30 11 -22 25 10 20 89 -8 115 -29 27 -68 28 -92 2z m65 -15 c10 -12 10 -18 0
-30 -7 -8 -16 -15 -21 -15 -16 0 -38 31 -33 45 8 19 38 19 54 0z"/>
<path d="M1433 1303 c-45 -4 -55 -20 -28 -43 16 -13 145 -4 145 11 0 12 -43
39 -60 37 -8 -1 -34 -3 -57 -5z"/>
<path d="M3577 1273 c-9 -11 -17 -41 -18 -73 -3 -45 0 -55 14 -58 22 -4 47 52
47 108 0 44 -16 52 -43 23z"/>
<path d="M3880 1230 c-11 -11 -20 -24 -20 -29 0 -12 29 -41 40 -41 5 0 15 -12
22 -27 18 -39 51 -41 76 -5 19 26 20 31 6 50 -8 12 -21 22 -28 22 -8 0 -21 11
-30 25 -20 30 -39 32 -66 5z m48 -23 c2 -11 -3 -17 -17 -17 -25 0 -38 19 -20
31 19 12 33 6 37 -14z m61 -51 c8 -10 8 -16 -3 -25 -18 -15 -46 -3 -46 20 0
22 32 26 49 5z"/>
<path d="M1164 1217 c-21 -19 -28 -33 -28 -62 0 -68 71 -99 119 -51 35 36 42
72 18 104 -27 37 -72 40 -109 9z m94 -30 c5 -46 -55 -100 -84 -76 -22 18 -17
50 13 81 35 37 67 34 71 -5z"/>
<path d="M1488 1233 c-10 -2 -18 -10 -18 -18 0 -23 28 -37 62 -32 103 18 109
22 86 45 -11 11 -94 15 -130 5z"/>
<path d="M3498 1213 c-8 -10 -18 -32 -21 -49 -3 -18 -9 -44 -13 -59 -6 -24 -4
-26 17 -23 29 4 46 37 51 97 3 48 -10 62 -34 34z"/>
<path d="M1655 1185 c-5 -1 -30 -8 -55 -16 -56 -16 -55 -15 -40 -34 15 -18 57
-19 110 -3 43 14 51 31 21 48 -11 5 -21 10 -23 9 -2 0 -7 -2 -13 -4z"/>
<path d="M3405 1150 c-9 -10 -20 -40 -22 -65 -3 -25 -11 -45 -17 -45 -6 0 -2
-6 8 -12 16 -9 23 -6 43 16 13 15 23 39 23 55 0 15 5 32 11 38 13 13 4 33 -15
33 -7 0 -21 -9 -31 -20z"/>
<path d="M3812 1157 c-29 -37 -33 -57 -17 -91 9 -18 28 -39 42 -45 23 -10 31
-9 52 7 34 25 37 46 11 72 -24 24 -53 23 -58 -3 -3 -12 1 -15 14 -10 16 6 44
-19 44 -39 0 -17 -61 -8 -67 10 -3 9 -13 25 -21 35 -14 16 -13 20 7 41 12 13
18 27 13 30 -5 3 -14 0 -20 -7z"/>
<path d="M1320 1136 c0 -7 -19 -34 -42 -60 -33 -38 -38 -50 -27 -57 9 -5 16
-4 19 4 9 23 35 57 42 57 5 0 8 -29 8 -65 0 -51 3 -65 15 -65 8 0 15 3 15 8 0
4 21 29 46 56 34 36 42 51 33 57 -16 9 -29 3 -29 -15 0 -13 -31 -46 -44 -46
-4 0 -4 25 -1 55 5 38 4 60 -5 70 -16 19 -30 19 -30 1z"/>
<path d="M1705 1120 c-11 -4 -30 -10 -42 -15 -28 -9 -29 -21 -4 -35 28 -14 43
-13 96 10 40 17 45 23 35 35 -13 16 -51 18 -85 5z"/>
<path d="M3318 1103 c-21 -25 -42 -98 -34 -118 16 -42 75 47 76 113 0 26 -21
29 -42 5z"/>
<path d="M1795 1071 c-3 -6 -14 -11 -24 -11 -10 0 -23 -6 -30 -13 -14 -18 5
-37 37 -37 33 0 114 39 109 53 -5 15 -83 22 -92 8z"/>
<path d="M3701 1056 c-14 -35 -14 -35 7 -29 20 5 62 -46 65 -77 1 -18 2 -18
22 -2 11 9 21 17 22 18 2 0 -22 27 -52 59 l-54 59 -10 -28z"/>
<path d="M3217 1048 c-17 -28 -42 -106 -36 -113 3 -2 15 -2 27 2 23 5 52 53
52 84 0 10 5 21 10 24 18 11 10 25 -15 25 -15 0 -30 -9 -38 -22z"/>
<path d="M1463 1023 c-3 -10 -21 -40 -40 -66 -32 -46 -33 -50 -16 -62 15 -12
19 -11 22 3 6 32 21 42 43 31 11 -6 22 -8 25 -5 3 3 -2 8 -11 12 -21 8 -21 38
0 55 14 11 18 10 30 -5 7 -11 11 -24 7 -29 -4 -6 0 -8 11 -4 10 4 20 7 22 7
15 0 -3 21 -41 49 -41 29 -46 31 -52 14z"/>
<path d="M1873 1017 c-50 -24 -53 -33 -18 -49 22 -10 34 -8 75 13 31 15 49 30
47 39 -3 22 -56 21 -104 -3z"/>
<path d="M3124 1007 c-17 -19 -44 -81 -44 -100 0 -4 9 -7 19 -7 23 0 61 45 61
71 0 10 5 21 10 24 6 3 10 13 10 21 0 22 -34 17 -56 -9z"/>
<path d="M1977 981 c-55 -26 -56 -28 -39 -44 24 -22 36 -21 86 6 52 28 60 39
39 55 -22 16 -18 16 -86 -17z"/>
<path d="M3038 988 c-20 -16 -58 -83 -58 -103 0 -8 8 -15 18 -15 22 0 62 40
62 63 0 9 5 19 10 22 15 9 12 45 -3 45 -7 0 -20 -6 -29 -12z"/>
<path d="M3556 969 c-49 -38 -28 -79 40 -79 46 0 58 -9 48 -34 -7 -19 -35 -21
-53 -3 -10 10 -12 8 -9 -8 8 -47 88 -11 88 39 0 28 -16 36 -71 36 -32 0 -39 3
-39 20 0 16 7 20 30 20 22 0 28 4 24 15 -8 21 -26 19 -58 -6z"/>
<path d="M2071 947 c-45 -29 -50 -35 -37 -46 16 -13 86 -7 86 7 0 4 14 13 30
20 33 15 39 36 14 46 -27 10 -38 7 -93 -27z"/>
<path d="M2924 947 c-49 -59 -63 -107 -30 -107 23 0 86 83 86 115 0 23 -34 18
-56 -8z"/>
<path d="M1580 946 c0 -8 -16 -38 -35 -67 -38 -56 -39 -54 18 -85 30 -16 57
-13 57 6 0 7 -8 9 -19 5 -23 -7 -52 20 -45 40 7 18 35 20 52 3 18 -18 14 3 -4
23 -9 10 -14 25 -11 34 9 22 44 19 50 -5 6 -22 27 -27 27 -6 0 7 -18 25 -40
40 -46 30 -50 31 -50 12z"/>
<path d="M2200 939 c-19 -12 -36 -25 -38 -30 -2 -5 -10 -9 -18 -9 -24 0 -15
-29 12 -36 22 -6 68 18 124 64 5 4 -29 32 -39 32 -3 0 -22 -10 -41 -21z"/>
<path d="M2815 918 c-14 -18 -33 -41 -41 -51 -21 -26 -17 -37 16 -37 23 0 35
9 60 44 16 25 30 52 30 60 0 27 -37 18 -65 -16z"/>
<path d="M2305 921 c-16 -10 -41 -29 -53 -41 -19 -18 -21 -24 -10 -31 26 -17
54 -8 97 29 62 54 36 87 -34 43z"/>
<path d="M2745 930 c-22 -8 -85 -82 -85 -99 0 -20 51 -11 73 13 52 56 59 104
12 86z"/>
<path d="M2388 893 c-50 -40 -57 -66 -21 -71 16 -2 37 11 70 42 40 38 45 48
33 56 -23 15 -32 13 -82 -27z"/>
<path d="M2485 878 c-48 -45 -49 -58 -6 -58 28 0 101 63 101 88 0 27 -51 11
-95 -30z"/>
<path d="M2590 879 c-44 -46 -47 -54 -24 -63 19 -7 59 16 91 53 56 64 -6 72
-67 10z"/>
<path d="M3433 898 c-31 -19 -43 -38 -24 -38 4 0 20 -27 35 -60 l27 -60 27 14
c52 28 68 44 55 56 -8 9 -14 7 -22 -9 -7 -12 -18 -21 -27 -21 -22 0 -28 28
-10 49 22 24 20 34 -4 19 -16 -10 -23 -10 -36 4 -14 14 -15 20 -4 33 7 9 21
13 31 10 13 -4 19 -1 19 9 0 21 -28 19 -67 -6z"/>
<path d="M1698 869 c-23 -13 -22 -38 2 -69 27 -35 26 -62 -2 -58 -15 2 -24 11
-26 26 -4 26 -20 29 -29 6 -7 -20 32 -53 63 -54 46 0 57 43 23 89 -23 32 -19
51 12 51 12 0 19 -7 19 -20 0 -23 15 -27 23 -6 3 8 -4 21 -18 30 -28 18 -43
19 -67 5z"/>
<path d="M3277 823 c-25 -13 -27 -17 -15 -31 18 -22 48 -89 48 -107 0 -17 9
-19 30 -5 12 7 12 12 2 22 -32 32 5 53 39 22 11 -10 25 -14 36 -10 16 6 15 9
-10 24 -21 13 -27 24 -25 47 1 17 -2 36 -6 43 -10 16 -64 13 -99 -5z m77 -18
c7 -20 -3 -45 -18 -45 -18 0 -36 21 -36 42 0 23 45 25 54 3z"/>
<path d="M1820 810 c0 -12 -11 -44 -25 -72 -14 -27 -25 -51 -25 -53 0 -1 9 -5
20 -8 12 -3 20 0 20 8 0 19 41 109 54 117 13 8 8 13 -21 22 -19 6 -23 4 -23
-14z"/>
<path d="M1937 800 c-9 -11 -23 -20 -32 -20 -18 0 -45 -50 -45 -84 0 -27 31
-62 63 -72 29 -9 70 27 81 70 8 31 6 41 -12 66 -26 35 -27 40 -7 40 8 0 15 5
15 10 0 18 -45 11 -63 -10z m31 -42 c19 -19 14 -65 -11 -93 -43 -51 -85 4 -54
71 17 35 43 44 65 22z"/>
<path d="M3130 767 c-34 -15 -34 -15 -23 -29 17 -21 43 -110 36 -121 -4 -6 0
-8 11 -4 10 4 24 7 31 7 7 0 27 12 44 26 37 31 41 69 10 108 -22 29 -64 34
-109 13z m84 -29 c9 -12 16 -32 16 -45 0 -24 -27 -56 -43 -50 -13 4 -35 63
-36 95 -1 30 42 30 63 0z"/>
<path d="M2045 703 c-3 -27 -13 -58 -21 -70 -18 -29 -18 -30 6 -36 15 -4 20 0
20 16 0 31 11 67 20 67 4 0 16 -24 26 -52 24 -66 44 -68 59 -8 7 25 17 55 23
67 16 29 15 33 -8 33 -13 0 -20 -7 -20 -19 0 -11 -5 -32 -11 -48 l-11 -28 -19
54 c-17 50 -32 70 -50 71 -4 0 -10 -21 -14 -47z"/>
<path d="M3030 736 c0 -2 7 -17 15 -32 32 -62 13 -70 -44 -19 -21 19 -46 35
-55 35 -20 0 -20 1 -1 -43 8 -20 15 -52 15 -70 0 -38 6 -48 26 -40 10 4 11 10
4 23 -12 23 -13 70 -2 70 5 0 22 -16 39 -35 41 -46 67 -47 59 -2 -3 17 -8 51
-12 75 -5 32 -11 42 -25 42 -11 0 -19 -2 -19 -4z"/>
<path d="M2281 638 c-1 -33 -6 -66 -11 -73 -15 -18 -1 -25 51 -25 52 0 75 15
85 56 15 58 -27 104 -94 104 -29 0 -29 -1 -31 -62z m85 25 c31 -41 7 -108 -37
-101 -21 3 -24 8 -21 38 5 60 12 80 29 80 9 0 22 -8 29 -17z"/>
<path d="M2791 674 c-30 -38 -27 -83 6 -111 34 -29 74 -29 101 0 46 49 12 137
-53 137 -24 0 -39 -7 -54 -26z m83 -16 c29 -41 18 -98 -19 -98 -36 0 -62 49
-51 96 8 31 49 33 70 2z"/>
<path d="M2447 636 c3 -25 1 -58 -5 -74 -10 -30 -10 -30 35 -37 35 -5 49 -3
61 9 9 9 13 19 9 23 -4 3 -13 1 -19 -5 -17 -17 -45 -15 -52 4 -8 21 1 34 25
34 10 0 19 5 19 10 0 6 -9 10 -20 10 -15 0 -20 7 -20 25 0 27 26 35 47 14 8
-8 13 -8 17 0 13 21 -5 31 -53 31 l-49 0 5 -44z"/>
<path d="M2647 653 c5 -16 8 -50 8 -78 l0 -50 47 3 c48 4 75 22 63 42 -5 8
-13 5 -26 -9 -11 -12 -24 -21 -30 -21 -17 0 -31 53 -26 98 4 39 3 42 -19 42
-22 0 -24 -3 -17 -27z"/>
<path d="M3565 4840 c-3 -5 -1 -17 4 -27 5 -10 14 -38 21 -63 20 -73 28 -90
54 -101 36 -17 58 -6 47 23 -4 13 -12 45 -15 72 -6 34 -16 58 -36 78 -28 28
-63 37 -75 18z"/>
<path d="M1390 4775 c-22 -23 -22 -25 -4 -31 10 -4 43 -18 73 -31 29 -12 68
-23 85 -23 31 1 66 20 66 36 -1 15 -135 74 -167 74 -18 0 -38 -9 -53 -25z"/>
<path d="M3703 4758 c3 -13 12 -52 20 -87 10 -47 22 -71 42 -88 49 -42 55 -26
39 94 -8 60 -42 103 -82 103 -20 0 -23 -4 -19 -22z"/>
<path d="M1283 4720 c-28 -11 -49 -49 -31 -54 7 -3 40 -14 74 -25 74 -26 116
-27 137 -3 23 26 22 29 -20 47 -21 9 -53 23 -71 31 -37 16 -57 17 -89 4z"/>
<path d="M3836 4702 c-2 -4 2 -46 10 -92 11 -69 19 -89 40 -108 39 -34 49 -24
47 44 -4 102 -11 123 -46 144 -35 22 -43 24 -51 12z"/>
<path d="M1170 4643 c-22 -8 -50 -34 -50 -47 0 -7 21 -17 48 -24 26 -7 61 -17
78 -22 45 -15 60 -12 90 14 27 23 28 23 7 34 -50 27 -150 53 -173 45z"/>
<path d="M3965 4538 c4 -46 13 -93 22 -106 15 -24 54 -44 64 -33 4 3 4 46 0
94 -5 78 -9 90 -31 107 -14 11 -33 20 -44 20 -17 0 -18 -6 -11 -82z"/>
<path d="M1028 4539 c-43 -32 -37 -56 15 -62 23 -3 65 -9 93 -12 45 -6 54 -4
79 18 28 24 28 24 8 35 -23 13 -92 32 -138 38 -20 3 -39 -3 -57 -17z"/>
<path d="M4082 4441 c3 -78 6 -93 27 -115 40 -43 51 -34 53 42 3 104 1 115
-27 140 -49 42 -57 32 -53 -67z"/>
<path d="M906 4433 c-15 -14 -25 -31 -23 -37 2 -6 45 -15 96 -19 89 -8 94 -7
117 14 14 13 23 27 21 33 -4 11 -105 34 -153 35 -21 1 -40 -8 -58 -26z"/>
<path d="M4198 4363 c-3 -107 -1 -123 18 -144 20 -22 46 -22 49 1 15 108 15
141 1 168 -14 27 -34 42 -57 42 -5 0 -10 -30 -11 -67z"/>
<path d="M798 4329 c-17 -17 -27 -34 -22 -38 5 -5 48 -12 95 -15 77 -6 88 -5
112 14 44 35 34 45 -50 58 -103 16 -100 16 -135 -19z"/>
<path d="M4306 4322 c-2 -4 -6 -49 -8 -99 -2 -78 0 -94 16 -112 30 -33 42 -25
55 36 17 88 14 126 -11 150 -32 28 -46 35 -52 25z"/>
<path d="M705 4227 c-13 -12 -25 -31 -27 -42 -3 -19 3 -20 85 -23 86 -3 88 -2
119 28 17 18 27 35 22 39 -5 5 -46 11 -92 14 -75 5 -85 3 -107 -16z"/>
<path d="M4406 4203 c-2 -10 -7 -56 -11 -103 -6 -78 -5 -87 14 -104 28 -26 48
-14 54 31 21 142 21 136 -8 166 -32 32 -42 34 -49 10z"/>
<path d="M666 4131 c-51 -8 -90 -39 -84 -70 3 -13 16 -15 78 -12 41 2 85 7 97
12 26 10 57 54 48 69 -7 11 -62 11 -139 1z"/>
<path d="M4505 4088 c-2 -7 -6 -26 -9 -43 -2 -16 -10 -51 -16 -77 -9 -39 -9
-52 5 -77 17 -34 55 -43 55 -14 0 18 17 75 32 108 10 23 -4 69 -29 97 -19 21
-32 23 -38 6z"/>
<path d="M579 4013 c-39 -4 -75 -35 -81 -68 -2 -17 2 -20 32 -19 84 3 145 18
168 41 13 13 22 29 19 36 -4 12 -72 17 -138 10z"/>
<path d="M4598 3974 c-3 -5 -16 -49 -28 -97 -23 -88 -23 -89 -3 -115 30 -41
40 -37 58 25 10 32 22 62 27 68 17 19 8 65 -20 96 -16 18 -31 28 -34 23z"/>
<path d="M540 3890 c-14 -4 -40 -8 -57 -9 -34 -1 -54 -22 -68 -70 -7 -22 -6
-23 36 -16 132 21 179 44 179 87 0 14 -7 18 -32 17 -18 -1 -44 -5 -58 -9z"/>
<path d="M4677 3833 c-10 -15 -57 -156 -57 -169 0 -7 11 -25 24 -41 l24 -28
15 35 c9 19 25 58 37 85 22 49 22 50 4 84 -19 35 -38 49 -47 34z"/>
<path d="M455 3763 c-33 -8 -65 -16 -72 -18 -17 -5 -46 -64 -39 -80 4 -10 13
-11 43 -3 21 5 54 13 73 17 56 13 70 22 86 53 26 51 12 56 -91 31z"/>
<path d="M4741 3688 c-5 -13 -21 -51 -35 -86 -26 -61 -26 -64 -10 -97 9 -19
21 -35 28 -35 16 1 76 132 76 167 0 30 -24 73 -41 73 -5 0 -13 -10 -18 -22z"/>
<path d="M425 3638 c-22 -5 -52 -11 -67 -15 -35 -7 -78 -50 -78 -78 0 -32 8
-35 49 -21 20 8 55 19 79 27 46 13 82 49 82 80 0 21 -5 21 -65 7z"/>
<path d="M4813 3558 c-32 -52 -73 -142 -73 -162 0 -13 8 -34 19 -47 l18 -23
18 30 c10 16 29 46 42 66 26 42 30 103 9 131 -16 20 -22 21 -33 5z"/>
<path d="M370 3508 c-14 -6 -34 -14 -45 -18 -65 -25 -77 -33 -92 -65 -27 -56
-9 -61 87 -23 72 28 85 37 97 66 21 50 6 62 -47 40z"/>
<path d="M4859 3407 c-7 -12 -25 -45 -40 -74 -31 -55 -37 -101 -17 -121 7 -7
15 -12 18 -12 11 0 100 136 100 153 0 24 -21 65 -36 71 -8 3 -19 -5 -25 -17z"/>
<path d="M296 3360 c-22 -11 -45 -20 -51 -20 -24 0 -65 -52 -65 -81 0 -37 11
-37 93 1 72 34 94 54 99 90 4 33 -23 36 -76 10z"/>
<path d="M4873 3212 c-23 -38 -45 -76 -49 -85 -7 -19 13 -77 27 -77 4 0 26 27
49 59 22 33 44 63 50 66 24 15 1 106 -26 105 -5 -1 -28 -31 -51 -68z"/>
<path d="M231 3205 c-64 -33 -90 -62 -91 -98 0 -30 25 -29 86 4 70 37 104 71
104 105 0 33 -21 31 -99 -11z"/>
<path d="M4902 3058 c-28 -39 -52 -80 -52 -90 0 -23 17 -58 29 -58 4 0 31 29
59 64 51 63 62 97 46 140 -11 29 -29 17 -82 -56z"/>
<path d="M195 3057 c-67 -42 -70 -46 -73 -85 -4 -54 6 -54 91 4 66 43 94 82
83 111 -9 21 -27 16 -101 -30z"/>
<path d="M4937 2924 c-63 -73 -75 -103 -57 -142 l12 -27 64 67 c67 71 77 98
51 146 -13 22 -14 21 -70 -44z"/>
<path d="M175 2912 c-66 -45 -70 -51 -73 -90 -4 -56 10 -55 93 5 50 37 66 55
71 80 6 31 0 53 -14 53 -4 0 -38 -22 -77 -48z"/>
<path d="M4954 2778 c-34 -35 -64 -74 -68 -86 -9 -27 0 -72 14 -72 18 0 140
127 140 146 -1 11 -6 32 -13 47 l-12 29 -61 -64z"/>
<path d="M214 2807 c-7 -7 -37 -31 -68 -55 -51 -39 -56 -47 -56 -82 0 -21 4
-41 9 -45 9 -5 113 73 138 104 15 18 13 83 -2 87 -5 2 -15 -2 -21 -9z"/>
<path d="M158 2617 c-71 -66 -88 -99 -65 -131 14 -19 17 -17 76 35 60 53 78
83 72 124 -5 38 -16 34 -83 -28z"/>
<path d="M4947 2611 c-68 -70 -83 -106 -54 -129 10 -8 28 2 72 40 33 28 64 57
68 64 11 19 5 87 -9 91 -6 2 -40 -28 -77 -66z"/>
<path d="M157 2461 c-37 -38 -67 -75 -67 -83 0 -28 13 -58 24 -58 6 0 38 26
70 59 48 49 58 65 59 95 2 64 -14 62 -86 -13z"/>
<path d="M4998 2513 c-1 -5 -29 -30 -60 -56 -53 -44 -58 -52 -58 -88 0 -22 5
-39 11 -39 11 0 97 63 132 97 10 10 17 31 17 55 0 31 -4 38 -19 38 -11 0 -21
-3 -23 -7z"/>
<path d="M178 2328 c-23 -29 -49 -59 -55 -66 -17 -17 -17 -63 0 -86 12 -16 18
-12 70 49 31 37 60 77 63 90 6 24 -10 65 -25 65 -5 0 -29 -24 -53 -52z"/>
<path d="M4950 2329 c-30 -22 -63 -49 -72 -60 -19 -22 -24 -74 -9 -83 11 -7
147 88 155 109 11 29 7 75 -6 74 -7 0 -38 -18 -68 -40z"/>
<path d="M215 2203 c-81 -97 -97 -142 -60 -181 9 -11 20 -2 56 45 76 99 82
116 52 151 -18 20 -18 20 -48 -15z"/>
<path d="M4913 2170 c-55 -38 -73 -57 -78 -81 -10 -45 5 -54 51 -28 21 12 52
29 67 37 15 7 35 24 43 37 16 25 16 77 -1 81 -5 2 -42 -19 -82 -46z"/>
<path d="M247 2063 c-10 -16 -31 -46 -47 -68 -34 -46 -38 -83 -12 -115 l18
-23 47 73 c45 70 55 107 41 144 -9 24 -28 19 -47 -11z"/>
<path d="M4900 2034 c-36 -19 -73 -44 -82 -56 -19 -21 -24 -63 -9 -72 8 -6
128 51 156 74 15 13 22 90 8 90 -5 0 -37 -16 -73 -36z"/>
<path d="M293 1938 c-5 -7 -27 -41 -47 -76 -40 -66 -43 -106 -10 -133 18 -15
15 -17 69 78 37 64 42 91 25 124 -12 22 -24 24 -37 7z"/>
<path d="M4854 1885 c-39 -19 -76 -40 -81 -47 -15 -19 -24 -66 -14 -72 11 -7
151 50 169 68 16 16 21 78 7 82 -5 2 -42 -12 -81 -31z"/>
<path d="M302 1733 c-23 -42 -42 -80 -42 -85 0 -19 31 -68 43 -68 12 0 87 146
87 169 0 20 -23 61 -35 61 -6 0 -30 -35 -53 -77z"/>
<path d="M4840 1758 c-25 -11 -61 -28 -80 -37 -39 -19 -67 -59 -57 -84 5 -13
16 -12 88 14 90 32 108 48 109 97 0 37 -1 37 -60 10z"/>
<path d="M394 1669 c-6 -8 -19 -32 -28 -54 -10 -22 -24 -53 -32 -69 -8 -16
-14 -35 -14 -41 0 -14 38 -65 49 -65 12 0 71 142 71 171 0 15 -8 37 -18 49
-14 18 -20 20 -28 9z"/>
<path d="M4780 1615 c-19 -7 -48 -16 -63 -20 -34 -7 -77 -50 -77 -76 0 -25 33
-25 115 2 71 23 82 32 91 77 7 37 -6 41 -66 17z"/>
<path d="M421 1459 c-30 -78 -31 -82 -15 -115 9 -19 20 -34 25 -34 5 0 12 0
16 -1 9 0 52 132 53 164 0 35 -16 67 -34 67 -7 0 -27 -36 -45 -81z"/>
<path d="M4700 1474 c-87 -23 -107 -34 -121 -66 -10 -24 -10 -31 1 -38 8 -5
21 -5 29 0 9 4 40 11 69 15 60 8 97 35 106 78 8 32 -1 33 -84 11z"/>
<path d="M520 1400 c-24 -45 -51 -146 -45 -170 9 -34 24 -50 46 -50 12 0 19 7
19 20 0 10 4 29 9 42 30 77 33 104 17 136 -21 41 -33 47 -46 22z"/>
<path d="M4660 1350 c-14 -5 -46 -11 -71 -15 -54 -7 -89 -35 -89 -72 0 -24 2
-25 38 -17 20 4 59 10 87 13 42 5 53 11 72 40 34 51 20 71 -37 51z"/>
<path d="M596 1282 c-10 -16 -28 -97 -33 -142 -4 -36 0 -49 17 -67 29 -32 38
-29 48 15 5 20 14 58 20 84 12 50 9 72 -16 101 -17 19 -28 22 -36 9z"/>
<path d="M4555 1218 c-38 -4 -82 -13 -96 -19 -28 -11 -56 -57 -42 -69 4 -4 48
-2 97 4 87 11 91 12 109 44 11 19 16 37 11 41 -5 4 -40 4 -79 -1z"/>
<path d="M671 1133 c-6 -21 -11 -49 -12 -63 0 -14 -4 -34 -8 -45 -10 -24 11
-70 39 -85 23 -12 22 -15 39 68 17 82 14 118 -11 142 -30 28 -35 26 -47 -17z"/>
<path d="M4383 1089 c-32 -9 -72 -53 -60 -65 3 -3 43 -7 89 -8 79 -2 84 -1
111 26 16 15 27 34 25 41 -6 15 -120 20 -165 6z"/>
<path d="M767 1053 c-4 -3 -7 -27 -7 -53 0 -26 -5 -61 -11 -79 -10 -28 -8 -35
15 -66 41 -53 53 -46 62 38 12 95 9 115 -17 143 -24 25 -31 28 -42 17z"/>
<path d="M4244 955 c-40 -40 -28 -50 72 -53 l89 -3 27 32 c15 18 25 36 22 41
-3 4 -46 8 -95 8 -83 0 -92 -2 -115 -25z"/>
<path d="M860 891 c0 -32 -3 -72 -6 -89 -5 -26 -1 -36 25 -62 17 -17 35 -29
39 -26 5 3 12 42 16 86 7 85 -6 131 -39 144 -31 12 -35 6 -35 -53z"/>
<path d="M4144 855 c-37 -37 -27 -49 49 -56 37 -3 70 -8 73 -12 11 -11 64 23
76 49 6 13 9 26 7 28 -2 2 -44 6 -92 10 -85 6 -89 5 -113 -19z"/>
<path d="M967 843 c-4 -3 -7 -44 -7 -91 0 -81 1 -85 31 -113 17 -16 35 -26 40
-23 5 3 9 47 9 99 0 89 -1 95 -26 114 -28 22 -37 25 -47 14z"/>
<path d="M4036 759 c-37 -29 -33 -47 12 -54 20 -3 56 -10 80 -16 48 -11 93 6
112 41 12 23 15 22 -76 39 -83 15 -97 14 -128 -10z"/>
<path d="M1080 661 l0 -90 35 -27 c20 -15 39 -24 42 -20 12 12 2 159 -13 187
-12 25 -33 39 -55 39 -5 0 -9 -40 -9 -89z"/>
<path d="M3929 675 c-30 -17 -45 -44 -26 -50 33 -12 134 -35 153 -35 25 0 74
36 74 54 0 7 -27 18 -67 25 -38 7 -77 15 -88 17 -11 2 -32 -3 -46 -11z"/>
<path d="M1197 578 c5 -71 9 -87 31 -110 25 -27 56 -36 66 -20 2 4 0 28 -5 52
-5 25 -11 61 -14 81 -6 41 -37 79 -65 79 -18 0 -19 -6 -13 -82z"/>
<path d="M3791 581 c-28 -28 -22 -36 36 -50 27 -7 56 -17 65 -22 32 -17 74
-10 98 16 29 31 20 44 -42 57 -103 22 -134 22 -157 -1z"/>
<path d="M1307 574 c-3 -4 -3 -14 2 -23 5 -9 12 -43 16 -75 5 -47 13 -66 36
-88 39 -40 65 -34 60 12 -1 19 -7 43 -12 52 -5 9 -9 31 -9 48 0 49 -66 101
-93 74z"/>
<path d="M3680 517 c-42 -21 -36 -42 17 -61 26 -9 56 -21 65 -27 33 -17 83
-10 108 16 l23 24 -34 14 c-44 19 -131 47 -144 47 -5 0 -21 -6 -35 -13z"/>
<path d="M1443 468 c15 -123 39 -168 89 -168 34 0 34 3 7 94 -20 71 -53 116
-86 116 -12 0 -14 -9 -10 -42z"/>
<path d="M3542 444 c-12 -8 -22 -19 -22 -24 0 -10 141 -80 161 -80 8 0 29 9
48 21 42 25 34 36 -58 73 -75 30 -98 32 -129 10z"/>
<path d="M1565 418 c4 -13 9 -35 12 -51 3 -15 9 -30 14 -33 5 -3 9 -15 9 -28
0 -12 10 -32 23 -44 25 -24 77 -30 77 -9 0 16 -24 85 -33 93 -4 4 -7 16 -7 26
0 28 -45 68 -76 68 -23 0 -25 -3 -19 -22z"/>
<path d="M3402 384 c-18 -13 -21 -19 -11 -30 6 -8 15 -14 20 -14 4 0 31 -13
59 -30 57 -34 89 -37 125 -14 26 17 34 44 12 44 -7 0 -39 13 -72 30 -68 33
-101 37 -133 14z"/>
<path d="M1703 374 c-6 -15 13 -73 48 -149 10 -21 53 -45 80 -45 15 0 10 39
-11 82 -11 23 -20 47 -20 54 0 39 -84 90 -97 58z"/>
<path d="M3273 338 c-13 -6 -23 -16 -23 -22 0 -15 138 -96 164 -96 29 1 74 36
61 49 -19 18 -145 81 -163 80 -9 0 -27 -5 -39 -11z"/>
<path d="M1830 331 c0 -11 16 -50 57 -137 20 -44 103 -77 103 -40 0 18 -67
151 -84 165 -20 17 -76 26 -76 12z"/>
<path d="M3133 298 c-13 -6 -23 -16 -23 -22 0 -6 29 -30 64 -53 68 -46 116
-55 152 -28 22 17 28 11 -75 75 -68 42 -82 45 -118 28z"/>
<path d="M1970 289 c0 -19 61 -136 79 -153 23 -21 77 -31 86 -16 4 6 -7 34
-24 61 -17 28 -31 54 -31 59 0 4 -14 20 -31 34 -31 26 -79 35 -79 15z"/>
<path d="M2121 261 c-12 -8 -6 -22 29 -81 23 -39 51 -75 61 -80 22 -12 66 -13
73 -1 6 9 -44 95 -79 137 -23 26 -63 39 -84 25z"/>
<path d="M2980 260 c-16 -11 -12 -15 80 -92 36 -31 92 -37 123 -14 17 13 12
18 -54 65 -73 51 -116 63 -149 41z"/>
<path d="M2836 237 c-16 -12 -12 -17 41 -63 81 -70 98 -79 134 -64 26 11 41
40 22 40 -5 0 -34 23 -66 50 -61 52 -97 62 -131 37z"/>
<path d="M2250 231 c0 -5 16 -30 35 -55 19 -26 35 -50 35 -55 0 -15 35 -39 60
-42 70 -6 74 4 28 64 -67 87 -79 97 -120 97 -21 0 -38 -4 -38 -9z"/>
<path d="M2703 230 c-13 -5 -23 -12 -23 -15 0 -16 132 -135 150 -135 17 0 54
14 68 25 5 4 -108 109 -131 122 -26 14 -34 15 -64 3z"/>
<path d="M2395 221 c-5 -8 35 -63 94 -129 12 -13 32 -22 50 -22 63 0 64 8 5
80 -30 37 -62 71 -70 74 -24 9 -72 7 -79 -3z"/>
<path d="M2553 223 c-7 -2 -13 -9 -13 -15 0 -16 100 -122 123 -131 27 -10 77
1 77 17 0 7 -29 41 -64 74 -62 59 -86 70 -123 55z"/>
</g>
</svg>
