<?xml version="1.0" standalone="no"?>
<!DOCTYPE svg PUBLIC "-//W3C//DTD SVG 20010904//EN"
 "http://www.w3.org/TR/2001/REC-SVG-20010904/DTD/svg10.dtd">
<svg version="1.0" xmlns="http://www.w3.org/2000/svg"
 width="256.000000pt" height="256.000000pt" viewBox="0 0 256.000000 256.000000"
 preserveAspectRatio="xMidYMid meet">

<g transform="translate(0.000000,256.000000) scale(0.100000,-0.100000)"
fill="#000000" stroke="none">
<path d="M1200 2259 c-125 -11 -289 -58 -401 -113 -48 -25 -109 -69 -173 -126
-80 -71 -77 -65 -70 -128 4 -31 8 -58 9 -60 2 -2 42 32 89 75 149 136 153 139
306 191 185 63 280 73 452 47 157 -23 297 -81 415 -171 24 -19 48 -34 51 -33
4 0 22 18 40 39 l32 38 -55 42 c-62 48 -265 150 -298 150 -13 0 -33 7 -45 16
-12 8 -39 17 -60 19 -20 2 -68 8 -107 14 -38 6 -77 10 -85 9 -8 0 -53 -4 -100
-9z"/>
<path d="M2095 2007 c-51 -20 -109 -54 -127 -73 -30 -33 -68 -128 -68 -169 0
-61 46 -171 83 -199 83 -62 146 -69 209 -25 16 12 31 19 34 16 6 -6 -13 -157
-27 -212 -16 -59 -34 -75 -71 -64 -52 15 -70 37 -67 88 3 41 1 45 -28 59 -29
14 -34 13 -57 -2 -23 -14 -26 -24 -26 -70 0 -37 6 -61 18 -76 22 -27 82 -49
108 -39 10 4 47 8 81 8 84 1 114 26 142 121 12 38 26 72 31 75 6 3 10 17 10
30 0 13 7 50 15 82 8 31 15 80 15 108 0 63 -54 245 -79 265 -10 9 -23 25 -29
36 -6 11 -33 27 -65 37 -62 19 -62 19 -102 4z m82 -85 c22 -14 53 -130 53
-202 0 -87 -19 -137 -54 -145 -14 -3 -36 -7 -48 -9 -52 -11 -81 53 -79 172 1
104 8 134 37 165 24 27 66 35 91 19z"/>
<path d="M379 1971 c-31 -40 -56 -52 -118 -57 -38 -3 -71 -29 -71 -54 0 -23
20 -30 81 -30 91 0 87 10 84 -232 -2 -117 -7 -226 -12 -243 -7 -24 -17 -32
-49 -40 -21 -5 -45 -14 -51 -18 -22 -14 -15 -55 13 -73 22 -15 34 -16 87 -6
34 6 69 10 77 9 8 -1 34 2 57 7 24 4 49 4 59 -2 22 -12 51 -4 59 16 8 20 -39
69 -82 84 -18 6 -35 19 -38 27 -3 8 -5 83 -5 165 1 83 1 165 1 181 0 17 4 56
10 88 14 81 3 164 -27 194 -13 13 -28 23 -33 23 -6 0 -24 -18 -42 -39z"/>
<path d="M1000 2001 c-8 -5 -39 -17 -68 -26 -35 -12 -62 -29 -79 -50 -38 -48
-72 -155 -85 -272 -10 -89 -9 -117 7 -210 l19 -108 60 -58 61 -58 70 6 c87 8
127 36 170 120 26 51 30 68 30 145 0 76 -3 91 -25 123 -34 50 -69 64 -175 74
l-90 8 -3 85 c-2 76 0 90 20 120 50 72 84 66 106 -21 22 -86 51 -106 111 -74
39 20 56 99 31 145 -24 45 -118 75 -160 51z m-2 -399 c15 -10 34 -21 43 -24
20 -8 39 -73 39 -139 0 -48 -4 -57 -37 -91 -29 -30 -45 -38 -73 -38 -46 0 -56
8 -76 55 -19 46 -23 200 -5 218 9 9 33 20 79 36 2 0 16 -7 30 -17z"/>
<path d="M1441 1988 c-19 -12 -44 -38 -55 -57 -47 -82 -35 -212 25 -261 l31
-26 -40 -39 c-27 -28 -44 -57 -56 -97 -23 -80 -21 -99 20 -173 46 -84 88 -108
184 -106 82 1 131 32 169 107 14 28 32 58 39 67 18 22 32 86 21 93 -5 3 -9 19
-9 35 0 24 -8 35 -47 59 -26 16 -55 32 -65 36 -25 7 -23 37 5 71 44 53 87 140
87 174 0 19 -7 44 -15 56 -24 35 -119 74 -193 80 -59 4 -71 2 -101 -19z m182
-76 c22 -23 27 -37 27 -82 0 -47 -5 -60 -40 -107 -23 -29 -45 -53 -51 -53 -19
0 -63 32 -93 66 -21 26 -29 46 -31 85 -4 80 31 109 146 118 8 0 27 -12 42 -27z
m-60 -362 c48 -9 92 -51 113 -105 14 -38 14 -46 1 -71 -8 -16 -23 -36 -33 -45
-39 -34 -152 -42 -185 -13 -26 23 -43 129 -28 168 18 45 60 88 79 80 8 -4 32
-10 53 -14z"/>
<path d="M2220 1179 c-31 -13 -37 -22 -45 -76 -3 -24 -15 -72 -27 -105 -17
-54 -18 -67 -7 -100 20 -61 35 -66 58 -20 39 76 81 226 81 287 0 27 -17 31
-60 14z"/>
<path d="M1209 1141 c-69 -27 -103 -57 -133 -118 -25 -47 -28 -63 -23 -114 6
-73 43 -131 112 -177 28 -19 51 -37 53 -41 1 -4 -25 -15 -59 -25 -49 -13 -73
-28 -120 -73 l-59 -56 -28 25 c-31 29 -84 58 -107 58 -21 0 -19 17 3 24 10 4
33 21 50 39 29 30 33 40 35 100 2 61 0 68 -28 97 -67 70 -143 77 -221 20 -85
-61 -65 -209 34 -250 33 -14 27 -24 -22 -39 -49 -14 -91 -52 -83 -75 8 -19
136 -110 210 -147 180 -92 485 -135 637 -89 19 5 46 10 60 10 67 0 314 124
405 203 l40 35 -25 27 c-14 14 -44 31 -67 38 -24 6 -43 14 -43 18 0 4 14 12
30 19 86 36 113 168 48 237 -98 104 -268 41 -268 -100 0 -60 28 -110 73 -134
l32 -16 -60 -29 c-33 -17 -70 -43 -81 -59 l-21 -29 -31 44 c-34 48 -98 88
-170 109 l-45 14 64 42 c72 47 103 92 114 163 16 104 -44 203 -148 247 -59 25
-97 26 -158 2z"/>
<path d="M321 1143 l-33 -4 7 -46 c16 -109 105 -323 134 -323 12 0 26 67 22
105 -2 16 -11 46 -22 67 -10 20 -19 44 -19 52 0 9 -6 30 -14 48 -8 18 -18 50
-21 71 -3 20 -9 36 -13 35 -4 0 -22 -3 -41 -5z"/>
</g>
</svg>
